<svg version="1" xmlns="http://www.w3.org/2000/svg" width="346.667" height="346.667" viewBox="0 0 260.000000 260.000000"><path d="M51.4 32.9c-8 3.6-6.2-1.1-37.3 96.6-7.3 22.9-7.6 24.1-6.2 29.2 1.4 5.3 4.4 8.9 9.2 11.3 7.7 4 18.7 1.3 23-5.6C42.4 160.7 77 52.9 77 49.5c0-9.5-8.8-18.2-18.5-18.4-1.6 0-4.9.8-7.1 1.8zM100.3 33.5c-2.8 1.4-5.9 3.8-6.8 5.2C90.9 42.7 57 150 57 154.3c0 14.6 17.5 23.1 28.9 13.9 2.2-1.8 4.4-4.9 5.8-8.3 1.2-3 9.4-28.1 18.2-55.9 16.7-52.3 17.8-56.9 14.7-62.8-1.9-3.7-5.5-6.8-9.8-8.7-5.2-2.1-8.6-1.9-14.5 1zM151.7 32.4c-4.6 1.7-7.4 4.1-9.5 8.1-3.3 6.5-35.4 109.1-35.5 113.5-.2 9.6 8.1 18 17.8 18 5.9 0 12.5-3.7 15.1-8.6 1.2-2.1 7-19 12.9-37.4 5.8-18.4 13.5-42.5 17.1-53.6 3.5-11.1 6.4-21.6 6.4-23.5-.1-11.9-13-20.7-24.3-16.5zM179.5 90.5c-4.6 2.5-6.6 4.6-8.6 9-3.3 7-1.9 14.5 3.7 19.9 11.4 11.1 30.5 2.7 30.4-13.4-.1-4.2-3.6-10.6-7.5-13.6-4.6-3.5-13.3-4.4-18-1.9zM225.6 91.3c-2.2 1.2-4.8 3.6-5.8 5.4-1.7 2.8-33.3 100.4-35.9 110.9-1.9 7.4 2.2 16.3 9.2 19.9 3.7 2 12.3 1.9 16.6-.1 7-3.4 6.2-1.4 34.2-89.4 5-15.7 9.1-29.8 9.1-31.3 0-6-4.7-13.4-10.2-16.3-4.2-2.2-12.6-1.8-17.2.9zM166.3 137.1c-4.8 1.4-9.8 6.9-11.2 12.3-3.6 14.4 10.2 26.7 23.6 21.1 7.8-3.3 11.8-9.8 11.1-18.1-1-11.6-11.9-18.6-23.5-15.3z"/></svg>